<svg width="512" height="512" viewBox="0 0 512 512" fill="none" xmlns="http://www.w3.org/2000/svg">
<g clip-path="url(#clip0_1225_24)">
<path d="M0 0V512H512V0H0Z" fill="#2A2766"/>
<path fill-rule="evenodd" clip-rule="evenodd" d="M319.438 335.412L343.958 359.932L360.768 343.12L336.248 318.602L319.438 335.412Z" fill="#FEFEFE"/>
<path fill-rule="evenodd" clip-rule="evenodd" d="M278.108 294.083L302.626 318.603L319.438 301.791L294.918 277.273L278.108 294.083Z" fill="#FEFEFE"/>
<path fill-rule="evenodd" clip-rule="evenodd" d="M343.602 151.617L319.064 176.154L335.878 192.967L360.414 168.43L343.602 151.617Z" fill="#FEFEFE"/>
<path fill-rule="evenodd" clip-rule="evenodd" d="M302.252 192.977L277.714 217.51L294.524 234.326L319.064 209.786L302.252 192.977Z" fill="#FEFEFE"/>
<path fill-rule="evenodd" clip-rule="evenodd" d="M176.126 319.102L151.607 343.62L168.421 360.432L192.938 335.912L176.126 319.102Z" fill="#FEFEFE"/>
<path fill-rule="evenodd" clip-rule="evenodd" d="M234.31 294.544L272.808 256.04L176.798 160.031H159.973V176.857L239.17 256.056L217.498 277.732L201.348 293.868V310.696H218.174L234.31 294.544Z" fill="#FEFEFE"/>
<path fill-rule="evenodd" clip-rule="evenodd" d="M382.1 190.102L316.198 256.004L382.094 321.904L447.998 256.002L382.1 190.102ZM382.094 288.25L349.856 256.01L382.084 223.778L414.322 256.016L382.094 288.25Z" fill="#FEFEFE"/>
<path fill-rule="evenodd" clip-rule="evenodd" d="M256 316.203L190.098 382.107L255.998 448.003L321.9 382.099L256 316.203ZM256 349.863L288.232 382.107L255.994 414.345L223.756 382.107L256 349.863Z" fill="#FEFEFE"/>
<path fill-rule="evenodd" clip-rule="evenodd" d="M256.008 64L190.104 129.904L256.004 195.806L321.908 129.902L256.008 64ZM255.99 97.6788L288.234 129.92L256.002 162.149L223.762 129.909L255.99 97.6788Z" fill="#FEFEFE"/>
<path fill-rule="evenodd" clip-rule="evenodd" d="M129.901 190.102L64 256.008L129.9 321.904L195.802 256.002L129.901 190.102ZM129.896 223.768L162.141 256.008L129.9 288.246L97.6578 256.008L129.896 223.768Z" fill="#FEFEFE"/>
</g>
<defs>
<clipPath id="clip0_1225_24">
<rect width="512" height="512" fill="white"/>
</clipPath>
</defs>
</svg>
